<?xml version="1.0" encoding="UTF-8"?>
<svg xmlns="http://www.w3.org/2000/svg" width="512" height="512" viewBox="0 0 512 512" version="1.1">
  <defs>
    <linearGradient id="bgGrad" x1="0" y1="0" x2="1" y2="1">
      <stop offset="0%" stop-color="#0ea5a5"/>
      <stop offset="100%" stop-color="#22c55e"/>
    </linearGradient>
    <filter id="shadow" x="-20%" y="-20%" width="140%" height="140%">
      <feDropShadow dx="0" dy="8" stdDeviation="12" flood-color="#000" flood-opacity="0.25"/>
    </filter>
  </defs>
  <!-- Rounded square background -->
  <rect x="32" y="32" width="448" height="448" rx="88" ry="88" fill="url(#bgGrad)" filter="url(#shadow)"/>

  <!-- Subtle inner stroke -->
  <rect x="36" y="36" width="440" height="440" rx="84" ry="84" fill="none" stroke="rgba(255,255,255,0.25)" stroke-width="4"/>

  <!-- Dollar/cash mark -->
  <g transform="translate(0,8)">
    <path d="M256 116c-11 0-20 9-20 20v20c-52 7-92 39-92 86 0 45 35 73 93 85l-1 0c55 11 70 22 70 42 0 22-23 36-58 36-36 0-63-15-82-30-8-6-19-5-26 3l-14 16c-7 8-6 20 2 27 26 21 63 38 111 41v20c0 11 9 20 20 20s20-9 20-20v-20c54-7 92-42 92-89 0-49-40-72-103-85-49-10-60-20-60-38 0-19 22-32 54-32 28 0 51 9 69 21 8 6 20 4 26-4l12-17c6-9 4-21-5-27-22-16-53-30-90-34v-20c0-11-9-20-20-20z" fill="#0b1220" fill-opacity="0.16"/>
    <path d="M256 108c-11 0-20 9-20 20v20c-52 7-92 39-92 86 0 45 35 73 93 85l-1 0c55 11 70 22 70 42 0 22-23 36-58 36-36 0-63-15-82-30-8-6-19-5-26 3l-14 16c-7 8-6 20 2 27 26 21 63 38 111 41v20c0 11 9 20 20 20s20-9 20-20v-20c54-7 92-42 92-89 0-49-40-72-103-85-49-10-60-20-60-38 0-19 22-32 54-32 28 0 51 9 69 21 8 6 20 4 26-4l12-17c6-9 4-21-5-27-22-16-53-30-90-34v-20c0-11-9-20-20-20z" fill="#ffffff"/>
  </g>

  <!-- Small accent coin -->
  <circle cx="394" cy="138" r="28" fill="#f59e0b" stroke="rgba(0,0,0,0.15)" stroke-width="6"/>
</svg>
